<svg xmlns="http://www.w3.org/2000/svg" width="32" height="48" viewBox="0 0 32 48"><ellipse cx="16" cy="43" rx="11" ry="3" fill="#101110" opacity=".25"/><path d="M9 30h6v12H9zm9 0h6v12h-6" fill="#555d53"/><rect x="6" y="15" width="21" height="21" rx="5" fill="#a78d61"/><path d="M7 21h4v12H7m15-12h4v12h-4" fill="#929b87"/><rect x="10" y="3" width="14" height="15" rx="5" fill="#967050"/><path d="M9 9V5l4-4h8l4 5v5l-4-5h-8z" fill="#33312b"/><path d="M13 22h8v3h-8" fill="#b98128"/><path d="M16 19l3 10-3 4-3-4z" fill="#564838"/></svg>
